<?xml version="1.0" encoding="UTF-8" standalone="no"?>
<!DOCTYPE svg PUBLIC "-//W3C//DTD SVG 1.1//EN" "http://www.w3.org/Graphics/SVG/1.1/DTD/svg11.dtd">
<svg width="100%" height="100%" viewBox="0 0 1080 1080" version="1.1" xmlns="http://www.w3.org/2000/svg" xmlns:xlink="http://www.w3.org/1999/xlink" xml:space="preserve" xmlns:serif="http://www.serif.com/" style="fill-rule:evenodd;clip-rule:evenodd;stroke-linecap:round;stroke-linejoin:round;stroke-miterlimit:1.5;">
    <g transform="matrix(0.757018,0,0,0.757018,-3.19781,181.322)">
        <circle cx="327.489" cy="346.22" r="69.308" style="fill:none;stroke:rgb(2,0,255);stroke-width:2.64px;"/>
    </g>
    <g transform="matrix(0.757018,0,0,0.757018,297.624,22.2758)">
        <circle cx="327.489" cy="346.22" r="69.308" style="fill:none;stroke:rgb(2,0,255);stroke-width:2.64px;"/>
    </g>
    <g transform="matrix(0.757018,0,0,0.757018,575.717,167.211)">
        <circle cx="327.489" cy="346.22" r="69.308" style="fill:none;stroke:rgb(2,0,255);stroke-width:2.64px;"/>
    </g>
    <g transform="matrix(0.757018,0,0,0.757018,501.808,501.622)">
        <circle cx="327.489" cy="346.22" r="69.308" style="fill:none;stroke:rgb(2,0,255);stroke-width:2.64px;"/>
    </g>
    <g transform="matrix(0.757018,0,0,0.757018,80.2949,501.622)">
        <circle cx="327.489" cy="346.22" r="69.308" style="fill:none;stroke:rgb(2,0,255);stroke-width:2.64px;"/>
    </g>
    <g transform="matrix(1,0,0,1,-70.9567,137.34)">
        <g transform="matrix(62.3249,0,0,62.3249,349.681,328.093)">
        </g>
        <text x="283.857px" y="328.093px" style="font-family:'ArialMT', 'Arial', sans-serif;font-size:62.325px;fill:rgb(2,0,255);">v0</text>
    </g>
    <g transform="matrix(1,0,0,1,230.865,-21.7053)">
        <g transform="matrix(62.3249,0,0,62.3249,349.681,328.093)">
        </g>
        <text x="283.857px" y="328.093px" style="font-family:'ArialMT', 'Arial', sans-serif;font-size:62.325px;fill:rgb(2,0,255);">v1</text>
    </g>
    <g id="v2" transform="matrix(1,0,0,1,507.958,123.23)">
        <text x="283.857px" y="328.093px" style="font-family:'ArialMT', 'Arial', sans-serif;font-size:62.325px;fill:rgb(2,0,255);">v2</text>
    </g>
    <g transform="matrix(1,0,0,1,434.049,457.641)">
        <text x="283.857px" y="328.093px" style="font-family:'ArialMT', 'Arial', sans-serif;font-size:62.325px;fill:rgb(2,0,255);">v3</text>
    </g>
    <g transform="matrix(1,0,0,1,12.5361,457.641)">
        <text x="283.857px" y="328.093px" style="font-family:'ArialMT', 'Arial', sans-serif;font-size:62.325px;fill:rgb(2,0,255);">v4</text>
    </g>
    <path d="M290.263,404.921C288.503,408.382 284.427,410.137 280.627,408.883C276.435,407.499 274.154,402.971 275.539,398.778C276.186,396.818 278.889,393.16 283.787,389.349C296.383,379.549 325.744,362.749 331.281,359.452C348.906,348.959 363.402,333.647 381.145,323.735C413.976,305.393 450.243,298.915 485.435,287.507C489.635,286.145 494.15,288.45 495.512,292.65C496.874,296.85 494.569,301.366 490.369,302.727C456.172,313.813 420.851,319.88 388.948,337.703C371.332,347.545 356.965,362.782 339.466,373.2C334.762,376.001 312.326,388.807 298.599,398.342C295.038,400.815 291.012,404.272 290.263,404.921Z" style="fill:rgb(2,0,255);"/>
    <path d="M457.379,270.926C458.083,271.734 459.897,273.754 461.447,274.97C467.753,279.919 476.807,284.418 479.63,285.231C483.872,286.453 486.325,290.89 485.103,295.133C483.881,299.376 479.444,301.828 475.202,300.606C470.899,299.367 455.398,291.779 447.594,284.089C441.945,278.522 440.224,272.313 441.843,267.546C443.264,263.365 447.811,261.124 451.992,262.545C455.587,263.766 457.748,267.301 457.379,270.926Z" style="fill:rgb(2,0,255);"/>
    <path d="M474.679,329.09C477.128,332.763 476.134,337.735 472.46,340.184C468.786,342.633 463.815,341.639 461.366,337.965C458.505,333.673 457.908,328.296 459.353,322.565C461.695,313.28 469.94,302.776 474.475,298.583C477.717,295.585 482.782,295.784 485.78,299.026C488.777,302.267 488.579,307.333 485.337,310.331C482.63,312.834 477.95,318.517 475.645,324.164C475.171,325.325 474.799,326.476 474.648,327.585C474.573,328.132 474.398,328.668 474.679,329.09Z" style="fill:rgb(2,0,255);"/>
    <path d="M221.487,494.682C221.487,490.267 225.071,486.682 229.487,486.682C233.902,486.682 237.487,490.267 237.487,494.682C237.487,527.903 244.008,588.609 257.663,640.314C266.468,673.653 278.003,703.279 293.142,718.418C296.264,721.54 296.264,726.61 293.142,729.732C290.02,732.854 284.951,732.854 281.828,729.732C265.224,713.127 251.85,680.965 242.193,644.399C228.155,591.246 221.487,528.834 221.487,494.682Z" style="fill:rgb(2,0,255);"/>
    <path d="M299.915,720.144C302.672,723.593 302.109,728.631 298.66,731.388C295.211,734.144 290.173,733.582 287.416,730.133C284.288,726.219 282.23,719.956 281.459,712.556C280.004,698.589 282.628,680.119 284.43,671.974C285.384,667.663 289.658,664.937 293.969,665.891C298.28,666.845 301.006,671.119 300.052,675.431C298.692,681.58 296.766,694.409 297.052,705.698C297.203,711.657 297.561,717.199 299.915,720.144Z" style="fill:rgb(2,0,255);"/>
    <path d="M249.022,723.22C244.607,723.22 241.022,719.635 241.022,715.22C241.022,710.804 244.607,707.22 249.022,707.22C262.971,707.22 274.498,713.086 286.301,719.848C290.132,722.043 291.461,726.935 289.266,730.767C287.071,734.598 282.178,735.926 278.347,733.731C269.006,728.379 260.062,723.22 249.022,723.22Z" style="fill:rgb(2,0,255);"/>
    <path d="M602.938,282.008C598.659,283.098 594.301,280.509 593.21,276.231C592.12,271.952 594.709,267.593 598.987,266.503C606.642,264.553 615.491,265.178 624.46,267.252C636.25,269.978 648.303,275.167 657.455,278.496C703.442,295.222 766.84,335.28 796.108,374.878C798.732,378.429 797.98,383.442 794.429,386.066C790.879,388.691 785.865,387.939 783.241,384.388C755.573,346.955 695.459,309.344 651.986,293.532C643.344,290.389 631.989,285.415 620.856,282.841C614.543,281.381 608.326,280.635 602.938,282.008Z" style="fill:rgb(2,0,255);"/>
    <path d="M803.075,386.752C803.075,391.167 799.49,394.752 795.075,394.752C790.659,394.752 787.075,391.167 787.075,386.752C787.075,375.266 785.656,363.515 787.016,352.093C787.538,347.708 791.521,344.572 795.906,345.094C800.29,345.616 803.426,349.6 802.904,353.984C801.618,364.783 803.075,375.893 803.075,386.752Z" style="fill:rgb(2,0,255);"/>
    <path d="M801.851,383.512C805.634,385.79 806.855,390.71 804.577,394.492C802.299,398.275 797.379,399.496 793.596,397.218C787.837,393.749 781.878,389.804 775.563,387.164C770.41,385.01 765.004,383.734 759.213,385.042C754.906,386.014 750.62,383.307 749.647,379C748.675,374.693 751.382,370.407 755.689,369.435C772.778,365.576 787.986,375.161 801.851,383.512Z" style="fill:rgb(2,0,255);"/>
    <path d="M836.943,483.432C835.546,479.244 837.814,474.709 842.002,473.313C846.191,471.917 850.725,474.184 852.122,478.373C878.33,556.998 859.547,671.536 803.877,732.998C800.913,736.27 795.85,736.521 792.577,733.557C789.305,730.593 789.054,725.529 792.018,722.257C844.221,664.624 861.519,557.16 836.943,483.432Z" style="fill:rgb(2,0,255);"/>
    <path d="M799.988,732.84C797.555,736.525 792.589,737.541 788.904,735.108C785.22,732.675 784.203,727.708 786.636,724.024C786.966,723.525 786.924,722.816 786.965,722.053C787.062,720.231 786.841,718.176 786.479,716.046C785.147,708.19 781.872,699.54 780.569,695.44C779.232,691.232 781.562,686.73 785.77,685.393C789.978,684.055 794.48,686.386 795.818,690.594C797.527,695.971 802.079,708.354 802.857,718.107C803.334,724.09 802.322,729.305 799.988,732.84Z" style="fill:rgb(2,0,255);"/>
    <path d="M803.573,739.536C800.46,742.667 795.391,742.682 792.259,739.569C789.128,736.455 789.114,731.386 792.227,728.255C796.236,724.223 802.787,721.151 809.754,719.721C816.49,718.339 823.521,718.478 828.583,720.036C832.803,721.334 835.175,725.815 833.877,730.035C832.578,734.255 828.098,736.627 823.878,735.328C820.946,734.426 816.872,734.594 812.971,735.395C809.3,736.148 805.685,737.412 803.573,739.536Z" style="fill:rgb(2,0,255);"/>
    <g transform="matrix(0.98083,0.188891,-0.186635,0.981261,99.7385,-141.739)">
        <path d="M772.774,453.309C775.903,450.18 780.979,450.174 784.101,453.296C787.223,456.418 787.217,461.494 784.088,464.623L437.461,811.25C434.331,814.38 429.256,814.385 426.134,811.263C423.012,808.141 423.018,803.066 426.147,799.937L772.774,453.309Z" style="fill:rgb(2,0,255);"/>
    </g>
    <path d="M379.239,729.297C379.239,733.712 375.654,737.297 371.239,737.297C366.824,737.297 363.239,733.712 363.239,729.297C363.239,718.218 362.673,708.594 357.272,698.628C355.169,694.746 356.613,689.886 360.494,687.782C364.376,685.679 369.236,687.122 371.34,691.004C378.098,703.476 379.239,715.433 379.239,729.297Z" style="fill:rgb(2,0,255);"/>
    <path d="M379.045,741.88C375.377,744.338 370.404,743.354 367.947,739.686C365.489,736.018 366.472,731.045 370.141,728.587C380.312,721.774 398.146,719.902 409.221,724.763C413.264,726.538 415.106,731.261 413.331,735.304C411.557,739.347 406.834,741.188 402.791,739.414C396.057,736.458 385.229,737.738 379.045,741.88Z" style="fill:rgb(2,0,255);"/>
    <path d="M696.952,785.945C698.416,784.058 700.705,782.843 703.276,782.843C707.691,782.843 711.276,786.428 711.276,790.843C711.276,793.114 710.502,795.633 708.051,797.871C706.559,799.234 703.567,800.881 699.221,802.167C682.93,806.985 640.756,810.805 626.213,810.805C544.166,810.805 462.344,809.245 381.477,793.244C377.146,792.387 374.325,788.175 375.182,783.843C376.039,779.512 380.252,776.691 384.583,777.548C464.422,793.346 545.209,794.805 626.213,794.805C637.051,794.805 664.106,792.585 682.644,789.421C688.326,788.451 694.812,786.583 696.952,785.945Z" style="fill:rgb(2,0,255);"/>
    <path d="M379.239,795.697C375.076,795.418 371.781,791.948 371.781,787.715C371.781,783.3 375.366,779.715 379.781,779.715C384.692,779.715 389.199,782.23 392.764,786.802C397.788,793.245 400.934,804.627 402.259,809.547C403.407,813.81 400.877,818.204 396.614,819.352C392.35,820.499 387.957,817.97 386.809,813.706C386.059,810.919 384.695,805.468 382.506,800.725C381.813,799.224 381.047,797.796 380.147,796.641C379.901,796.326 379.457,795.9 379.239,795.697Z" style="fill:rgb(2,0,255);"/>
    <path d="M385.145,791.436C380.73,791.436 377.145,787.851 377.145,783.436C377.145,779.02 380.73,775.436 385.145,775.436C393.599,775.436 400.416,768.794 405.445,762.456C408.19,758.998 413.226,758.418 416.685,761.163C420.143,763.908 420.723,768.944 417.978,772.402C410.057,782.384 398.461,791.436 385.145,791.436Z" style="fill:rgb(2,0,255);"/>
</svg>
