<?xml version="1.0" encoding="UTF-8" standalone="no"?>
<!DOCTYPE svg PUBLIC "-//W3C//DTD SVG 1.1//EN" "http://www.w3.org/Graphics/SVG/1.1/DTD/svg11.dtd">
<svg width="100%" height="100%" viewBox="0 0 1080 1080" version="1.1" xmlns="http://www.w3.org/2000/svg" xmlns:xlink="http://www.w3.org/1999/xlink" xml:space="preserve" xmlns:serif="http://www.serif.com/" style="fill-rule:evenodd;clip-rule:evenodd;stroke-linecap:round;stroke-linejoin:round;stroke-miterlimit:1.5;">
    <g transform="matrix(0.757018,0,0,0.757018,-3.19781,181.322)">
        <circle cx="327.489" cy="346.22" r="69.308" style="fill:none;stroke:rgb(2,0,255);stroke-width:2.64px;"/>
    </g>
    <g transform="matrix(0.757018,0,0,0.757018,297.624,22.2758)">
        <circle cx="327.489" cy="346.22" r="69.308" style="fill:none;stroke:rgb(2,0,255);stroke-width:2.64px;"/>
    </g>
    <g transform="matrix(0.757018,0,0,0.757018,575.717,167.211)">
        <circle cx="327.489" cy="346.22" r="69.308" style="fill:none;stroke:rgb(2,0,255);stroke-width:2.64px;"/>
    </g>
    <g transform="matrix(0.757018,0,0,0.757018,501.808,501.622)">
        <circle cx="327.489" cy="346.22" r="69.308" style="fill:none;stroke:rgb(2,0,255);stroke-width:2.64px;"/>
    </g>
    <g transform="matrix(0.757018,0,0,0.757018,80.2949,501.622)">
        <circle cx="327.489" cy="346.22" r="69.308" style="fill:none;stroke:rgb(2,0,255);stroke-width:2.64px;"/>
    </g>
    <g transform="matrix(1,0,0,1,212.9,465.433)">
        <text x="0px" y="0px" style="font-family:'ArialMT', 'Arial', sans-serif;font-size:62.325px;fill:rgb(2,0,255);">v0</text>
    </g>
    <g transform="matrix(1,0,0,1,514.722,306.388)">
        <text x="0px" y="0px" style="font-family:'ArialMT', 'Arial', sans-serif;font-size:62.325px;fill:rgb(2,0,255);">v1</text>
    </g>
    <g transform="matrix(1,0,0,1,791.815,451.323)">
        <g id="v2">
            <text x="0px" y="0px" style="font-family:'ArialMT', 'Arial', sans-serif;font-size:62.325px;fill:rgb(2,0,255);">v2</text>
        </g>
    </g>
    <g transform="matrix(1,0,0,1,717.906,785.734)">
        <text x="0px" y="0px" style="font-family:'ArialMT', 'Arial', sans-serif;font-size:62.325px;fill:rgb(2,0,255);">v3</text>
    </g>
    <g transform="matrix(1,0,0,1,296.393,785.734)">
        <text x="0px" y="0px" style="font-family:'ArialMT', 'Arial', sans-serif;font-size:62.325px;fill:rgb(2,0,255);">v4</text>
    </g>
    <path d="M597.263,275.55C598.355,273.17 600.04,270.642 602.333,268.146C608.69,261.226 620.226,253.318 623.547,248.676C626.116,245.085 631.117,244.255 634.708,246.824C638.299,249.393 639.129,254.394 636.56,257.985C633.707,261.974 625.479,268.338 618.676,274.528C668.448,276.508 730.201,305.594 760.786,335.452C764.302,338.884 786.528,363.735 794.268,376.087C796.186,379.148 797.326,381.739 797.734,383.459C798.334,385.987 797.975,388.002 797.397,389.455C795.766,393.558 791.11,395.564 787.007,393.932C784.032,392.749 782.159,389.975 781.977,386.975C779.421,383.73 753.025,350.236 749.609,346.901C720.91,318.884 662.471,291.163 616.333,290.354C620.097,297.264 624.717,305.488 627.163,312.372C630.205,320.939 629.404,328.186 625.816,332.228C624.24,334.002 622.395,334.751 620.491,334.928C619.16,335.052 617.713,334.874 616.237,334.175C615.422,333.79 614.455,333.158 613.575,332.195C612.896,331.451 611.919,329.782 611.919,329.782C611.919,329.782 612.012,329.951 612.035,329.991C608.712,324.256 606.694,317.758 603.575,311.892C602.716,310.276 598.404,305.221 594.847,300.244C591.621,295.73 589.018,291.177 588.261,288.279C587.309,284.639 588.125,281.792 589.398,279.859C590.692,277.894 592.659,276.3 595.788,275.782C596.278,275.701 596.769,275.624 597.263,275.55Z" style="fill:rgb(2,0,255);"/>
    <path d="M818.224,494.185C810.41,498.943 799.569,505.46 796.718,506.748C792.695,508.566 787.952,506.776 786.134,502.752C784.316,498.728 786.107,493.986 790.131,492.168C794.808,490.054 815.514,476.268 820.644,474.193C824.953,472.449 827.971,473.963 829.049,474.656C830.15,475.363 831.419,476.519 832.342,478.49C833.021,479.94 833.747,483.125 833.978,487.553C834.768,502.653 832.293,538.105 831.795,543.517C827.445,590.811 834.401,639.645 823.518,686.176C819.605,702.905 810.525,717.805 804.193,733.634C802.553,737.733 797.894,739.73 793.794,738.09C789.695,736.451 787.698,731.791 789.338,727.691C795.373,712.604 804.208,698.477 807.938,682.532C818.654,636.716 811.579,588.619 815.862,542.051C816.284,537.468 818.328,510.056 818.224,494.185Z" style="fill:rgb(2,0,255);"/>
    <path d="M821.18,483.609C819.784,479.42 822.051,474.886 826.24,473.489C830.429,472.093 834.963,474.36 836.359,478.549C836.516,479.021 837.023,479.418 837.515,479.937C838.679,481.163 840.167,482.404 841.788,483.628C847.427,487.886 854.594,491.819 858.037,493.673C861.925,495.767 863.382,500.622 861.288,504.51C859.195,508.397 854.339,509.854 850.452,507.761C845.866,505.291 835.54,499.522 828.897,493.782C824.93,490.353 822.207,486.69 821.18,483.609Z" style="fill:rgb(2,0,255);"/>
    <path d="M289.51,718.608C293.479,720.543 295.131,725.336 293.196,729.305C291.261,733.274 286.469,734.925 282.5,732.991C278.273,730.931 273.211,725.226 268.666,717.346C260.204,702.677 252.046,680.215 249.099,672.47C227.173,614.861 212.582,562.569 217.2,500.844C217.53,496.441 221.372,493.134 225.775,493.463C230.178,493.792 233.485,497.635 233.156,502.038C228.722,561.305 243,611.464 264.052,666.779C266.846,674.12 274.504,695.446 282.525,709.352C285.049,713.727 287.163,717.464 289.51,718.608Z" style="fill:rgb(2,0,255);"/>
    <path d="M197.64,540.63C196.867,544.241 193.656,546.952 189.816,546.952C185.401,546.952 181.816,543.367 181.816,538.952C181.816,537.341 182.87,533.696 185.833,529.397C192.47,519.769 209.387,501.07 212.883,497.253C215.866,493.997 220.93,493.775 224.186,496.757C227.442,499.74 227.664,504.804 224.682,508.06C221.043,512.033 201.616,533.232 197.64,540.63Z" style="fill:rgb(2,0,255);"/>
    <path d="M221.963,503.247C218.841,500.125 218.841,495.056 221.963,491.934C225.085,488.811 230.154,488.811 233.277,491.934C240.025,498.682 244.403,506.797 249.039,514.843C252.812,521.389 256.761,527.914 263.406,532.964C266.921,535.636 267.606,540.659 264.934,544.174C262.263,547.689 257.239,548.374 253.724,545.703C245.263,539.272 239.98,531.167 235.177,522.832C231.237,515.996 227.696,508.98 221.963,503.247Z" style="fill:rgb(2,0,255);"/>
    <path d="M374.205,736.949C369.924,738.029 365.571,735.431 364.49,731.15C363.41,726.869 366.008,722.516 370.289,721.435C375.992,719.996 380.913,715.307 385.73,710.412C391.92,704.121 397.766,697.243 403.527,692.857C429.544,673.049 459.301,656.818 487.244,639.956C515.338,623.003 541.869,603.445 570.911,588.13C599.125,573.251 630.161,562.713 656.845,545.016C674.326,533.423 687.38,516.757 704.383,504.643C715.506,496.718 728.367,490.902 740.984,484.779C752.476,479.203 763.774,473.387 772.928,464.884C776.164,461.879 781.23,462.066 784.234,465.301C787.239,468.536 787.052,473.602 783.817,476.607C773.513,486.178 760.904,492.897 747.97,499.174C736.161,504.904 724.077,510.258 713.667,517.674C696.519,529.892 683.318,546.658 665.688,558.35C638.56,576.341 607.058,587.157 578.374,602.283C549.604,617.454 523.341,636.861 495.51,653.655C468.053,670.223 438.784,686.123 413.219,705.587C406.8,710.475 400.374,718.803 393.285,725.389C387.378,730.878 381.01,735.231 374.205,736.949Z" style="fill:rgb(2,0,255);"/>
    <path d="M743.701,468.343C739.285,468.343 735.701,464.758 735.701,460.343C735.701,455.928 739.285,452.343 743.701,452.343C748.808,452.343 754.107,453.856 759.385,455.683C763.293,457.037 767.188,458.592 770.997,459.128C775.369,459.744 778.419,463.793 777.804,468.165C777.188,472.537 773.139,475.587 768.767,474.972C763.986,474.299 759.054,472.501 754.15,470.803C750.616,469.579 747.12,468.343 743.701,468.343Z" style="fill:rgb(2,0,255);"/>
    <path d="M777.955,506.667C777.955,511.082 774.37,514.667 769.955,514.667C765.54,514.667 761.955,511.082 761.955,506.667C761.955,497.004 762.605,486.138 766.962,477.36C768.926,473.405 773.73,471.788 777.685,473.751C781.64,475.715 783.257,480.519 781.294,484.474C778.005,491.1 777.955,499.373 777.955,506.667Z" style="fill:rgb(2,0,255);"/>
    <path d="M377.684,796.933C374.39,797.97 370.67,796.777 368.645,793.768C366.179,790.105 367.152,785.13 370.814,782.664C372.554,781.494 375.522,780.565 379.414,781.001C385.282,781.658 396.079,786.133 399.222,786.583C422.692,789.94 446.341,790.664 469.939,792.596C546.52,798.867 623.51,796.835 699.186,783.129C703.531,782.342 707.697,785.23 708.484,789.575C709.271,793.92 706.382,798.086 702.038,798.873C624.989,812.827 546.603,814.927 468.633,808.543C444.714,806.584 420.746,805.824 396.956,802.422C394.987,802.14 390.292,800.522 385.424,798.947C382.78,798.091 378.814,797.186 377.684,796.933Z" style="fill:rgb(2,0,255);"/>
    <path d="M651.219,775.734C647.704,775.672 644.519,773.279 643.609,769.709C642.519,765.43 645.108,761.072 649.386,759.981C651.296,759.495 654.314,759.62 657.601,761.006C660.693,762.309 664.624,764.938 666.159,765.679C675.983,770.421 687.6,771.682 698.151,774.214C702.445,775.244 705.094,779.567 704.063,783.86C703.033,788.153 698.711,790.803 694.417,789.772C682.779,786.979 670.039,785.319 659.203,780.088C657.893,779.455 652.488,776.443 651.219,775.734Z" style="fill:rgb(2,0,255);"/>
    <path d="M685.297,827.936C685.297,832.351 681.712,835.936 677.297,835.936C672.881,835.936 669.297,832.351 669.297,827.936C669.297,822.336 671.322,816.067 674.62,810.1C679.026,802.126 685.629,794.656 691.039,790.253C694.463,787.465 699.506,787.983 702.294,791.407C705.081,794.831 704.564,799.874 701.14,802.662C697.008,806.025 691.989,811.749 688.624,817.838C686.74,821.247 685.297,824.738 685.297,827.936Z" style="fill:rgb(2,0,255);"/>
    <g transform="matrix(1,0,0,1,-46.9286,113.533)">
        <path d="M327.435,276.554C327.435,280.969 323.851,284.554 319.435,284.554C315.02,284.554 311.435,280.969 311.435,276.554C311.435,264.779 316.394,254.392 323.909,245.338C333.822,233.396 348.315,223.835 359.215,216.194C412.734,178.679 468.406,165.62 532.155,158.193C536.54,157.682 540.516,160.828 541.027,165.214C541.538,169.599 538.392,173.575 534.006,174.086C472.997,181.193 419.618,193.393 368.399,229.296C360.06,235.141 349.351,242.111 340.756,250.629C333.382,257.938 327.435,266.359 327.435,276.554Z" style="fill:rgb(2,0,255);"/>
    </g>
    <path d="M244.075,359.04C243.004,354.756 245.612,350.409 249.896,349.338C254.179,348.267 258.527,350.876 259.597,355.159C261.96,364.609 264.218,371.832 266.939,377.165C268.935,381.077 271.034,383.79 273.955,385.235C277.077,386.779 280.899,386.896 285.719,386.392C292.009,385.735 299.63,383.9 309.06,381.34C313.321,380.184 317.719,382.704 318.876,386.965C320.033,391.226 317.512,395.625 313.251,396.782C300.561,400.226 290.763,402.364 282.994,402.613C276.616,402.817 271.366,401.803 266.864,399.578C256.853,394.628 250.012,382.789 244.075,359.04Z" style="fill:rgb(2,0,255);"/>
</svg>
