<?xml version="1.0" encoding="UTF-8" standalone="no"?>
<!DOCTYPE svg PUBLIC "-//W3C//DTD SVG 1.1//EN" "http://www.w3.org/Graphics/SVG/1.1/DTD/svg11.dtd">
<svg width="100%" height="100%" viewBox="0 0 1080 1080" version="1.1" xmlns="http://www.w3.org/2000/svg" xmlns:xlink="http://www.w3.org/1999/xlink" xml:space="preserve" xmlns:serif="http://www.serif.com/" style="fill-rule:evenodd;clip-rule:evenodd;stroke-linecap:round;stroke-linejoin:round;stroke-miterlimit:1.5;">
    <g transform="matrix(0.757018,0,0,0.757018,-3.19781,181.322)">
        <circle cx="327.489" cy="346.22" r="69.308" style="fill:none;stroke:rgb(2,0,255);stroke-width:2.64px;"/>
    </g>
    <g transform="matrix(0.757018,0,0,0.757018,297.624,22.2758)">
        <circle cx="327.489" cy="346.22" r="69.308" style="fill:none;stroke:rgb(2,0,255);stroke-width:2.64px;"/>
    </g>
    <g transform="matrix(0.757018,0,0,0.757018,575.717,167.211)">
        <circle cx="327.489" cy="346.22" r="69.308" style="fill:none;stroke:rgb(2,0,255);stroke-width:2.64px;"/>
    </g>
    <g transform="matrix(0.757018,0,0,0.757018,501.808,501.622)">
        <circle cx="327.489" cy="346.22" r="69.308" style="fill:none;stroke:rgb(2,0,255);stroke-width:2.64px;"/>
    </g>
    <g transform="matrix(0.757018,0,0,0.757018,80.2949,501.622)">
        <circle cx="327.489" cy="346.22" r="69.308" style="fill:none;stroke:rgb(2,0,255);stroke-width:2.64px;"/>
    </g>
    <g transform="matrix(1,0,0,1,212.9,465.433)">
        <text x="0px" y="0px" style="font-family:'ArialMT', 'Arial', sans-serif;font-size:62.325px;fill:rgb(2,0,255);">v0</text>
    </g>
    <g transform="matrix(1,0,0,1,514.722,306.388)">
        <text x="0px" y="0px" style="font-family:'ArialMT', 'Arial', sans-serif;font-size:62.325px;fill:rgb(2,0,255);">v1</text>
    </g>
    <g transform="matrix(1,0,0,1,791.815,451.323)">
        <g id="v2">
            <text x="0px" y="0px" style="font-family:'ArialMT', 'Arial', sans-serif;font-size:62.325px;fill:rgb(2,0,255);">v2</text>
        </g>
    </g>
    <g transform="matrix(1,0,0,1,717.906,785.734)">
        <text x="0px" y="0px" style="font-family:'ArialMT', 'Arial', sans-serif;font-size:62.325px;fill:rgb(2,0,255);">v3</text>
    </g>
    <g transform="matrix(1,0,0,1,296.393,785.734)">
        <text x="0px" y="0px" style="font-family:'ArialMT', 'Arial', sans-serif;font-size:62.325px;fill:rgb(2,0,255);">v4</text>
    </g>
    <g transform="matrix(1,0,0,1,-46.9286,113.533)">
        <path d="M323.225,614.415C323.146,614.23 322.95,613.773 322.756,613.327C319.119,604.962 300.949,563.376 298.928,553.719C287.614,499.637 285.87,443.235 285.87,388.204C285.87,383.788 289.454,380.204 293.87,380.204C298.285,380.204 301.87,383.788 301.87,388.204C301.87,442.144 303.499,497.434 314.589,550.442C316.508,559.611 333.977,599.007 337.429,606.948C338.641,609.736 338.704,611.507 338.704,611.57C338.704,615.985 335.119,619.57 330.704,619.57C327.29,619.57 324.373,617.427 323.225,614.415Z" style="fill:rgb(2,0,255);"/>
    </g>
    <g transform="matrix(1,0,0,1,-46.9286,113.533)">
        <path d="M327.435,276.554C327.435,280.969 323.851,284.554 319.435,284.554C315.02,284.554 311.435,280.969 311.435,276.554C311.435,264.779 316.394,254.392 323.909,245.338C333.822,233.396 348.315,223.835 359.215,216.194C412.734,178.679 468.406,165.62 532.155,158.193C536.54,157.682 540.516,160.828 541.027,165.214C541.538,169.599 538.392,173.575 534.006,174.086C472.997,181.193 419.618,193.393 368.399,229.296C360.06,235.141 349.351,242.111 340.756,250.629C333.382,257.938 327.435,266.359 327.435,276.554Z" style="fill:rgb(2,0,255);"/>
    </g>
    <g transform="matrix(1,0,0,1,-46.9286,113.533)">
        <path d="M652.782,152.542C653.616,152.477 656.665,152.224 658.638,151.883C662.563,151.203 666.359,150.449 668.193,150.399C684.911,149.938 699.856,155.346 715.81,159.522C771.252,174.034 834.004,204.031 869.998,250.824C872.69,254.323 872.034,259.35 868.534,262.042C865.035,264.734 860.008,264.079 857.316,260.579C823.399,216.487 764.001,188.675 711.758,175.001C697.288,171.213 683.797,165.975 668.634,166.393C666.176,166.461 659.654,168.173 654.932,168.489C650.633,168.778 647.149,167.846 645.239,166.572C641.565,164.123 640.571,159.152 643.02,155.478C645.184,152.233 649.315,151.079 652.782,152.542Z" style="fill:rgb(2,0,255);"/>
    </g>
    <g transform="matrix(1,0,0,1,-46.9286,113.533)">
        <path d="M908.444,354.581C906.343,350.698 907.789,345.839 911.672,343.737C915.555,341.636 920.414,343.082 922.515,346.965C960.405,416.973 937.771,501.771 910.562,570.065C898.34,600.741 887.349,633.612 860.29,654.855C856.817,657.581 851.784,656.975 849.057,653.502C846.331,650.029 846.937,644.996 850.41,642.27C875.199,622.809 884.501,592.246 895.698,564.143C921.266,499.966 944.05,420.368 908.444,354.581Z" style="fill:rgb(2,0,255);"/>
    </g>
    <g transform="matrix(1,0,0,1,-46.9286,113.533)">
        <path d="M751.146,685.392C754.277,682.279 759.346,682.294 762.46,685.425C765.573,688.556 765.558,693.625 762.427,696.738C739.325,719.708 700.937,726.215 670.779,732.615C603.376,746.921 558.83,744.85 492.735,732.618C462.008,726.932 433.385,722.428 407.559,704.133C403.956,701.581 403.103,696.583 405.655,692.981C408.207,689.378 413.205,688.525 416.807,691.077C440.662,707.975 467.266,711.633 495.646,716.885C559.428,728.689 602.414,730.769 667.457,716.964C694.866,711.147 730.15,706.268 751.146,685.392Z" style="fill:rgb(2,0,255);"/>
    </g>
    <g transform="matrix(1,0,0,1,-46.9286,113.533)">
        <path d="M817.914,345.595C819.756,341.583 824.51,339.821 828.522,341.663C832.535,343.506 834.297,348.259 832.454,352.272C812.22,396.341 757.928,426.578 720.202,452.589C691.635,472.284 660.576,487.813 631.972,507.376C609.976,522.419 590.25,541.49 566.781,554.337C521.355,579.202 472.36,597.772 428.683,626.11C424.979,628.513 420.02,627.457 417.617,623.753C415.214,620.049 416.27,615.091 419.974,612.688C463.986,584.132 513.325,565.358 559.099,540.302C582.106,527.708 601.376,508.916 622.94,494.169C651.528,474.617 682.569,459.1 711.12,439.416C729.348,426.849 751.684,413.384 771.901,397.726C791.182,382.793 808.59,365.903 817.914,345.595Z" style="fill:rgb(2,0,255);"/>
    </g>
</svg>
