<?xml version="1.0" encoding="UTF-8" standalone="no"?><!DOCTYPE svg PUBLIC "-//W3C//DTD SVG 1.1//EN" "http://www.w3.org/Graphics/SVG/1.1/DTD/svg11.dtd"><svg width="100%" height="100%" viewBox="0 0 540 540" version="1.1" xmlns="http://www.w3.org/2000/svg" xmlns:xlink="http://www.w3.org/1999/xlink" xml:space="preserve" xmlns:serif="http://www.serif.com/" style="fill-rule:evenodd;clip-rule:evenodd;stroke-linecap:round;stroke-linejoin:round;stroke-miterlimit:1.5;"><path d="M100.851,163.28c49.522,-26.327 94.972,-63.404 148.024,-82.638" style="fill:#16a34a;"/><path d="M102.377,166.15c-1.584,0.842 -3.553,0.24 -4.395,-1.344c-0.842,-1.584 -0.24,-3.553 1.344,-4.395c49.655,-26.398 95.247,-63.539 148.441,-82.825c1.686,-0.611 3.552,0.262 4.163,1.948c0.612,1.686 -0.261,3.552 -1.947,4.163c-52.91,19.182 -98.217,56.197 -147.606,82.453Z" style="fill:#16a34a;"/><path d="M287.795,84.942c-1.72,-0.507 -2.706,-2.315 -2.199,-4.036c0.506,-1.721 2.315,-2.706 4.035,-2.2c11.655,3.432 21.487,9.331 32.587,14.096c27.605,11.849 54.571,24.017 80.937,38.495c16.3,8.951 33.585,14.473 48.582,25.777c1.432,1.08 1.719,3.119 0.639,4.551c-1.08,1.433 -3.119,1.719 -4.551,0.639c-14.744,-11.112 -31.774,-16.47 -47.799,-25.27c-26.181,-14.376 -52.961,-26.453 -80.372,-38.219c-10.859,-4.661 -20.457,-10.476 -31.859,-13.833Z" style="fill:#1d4ed8;"/><path d="M290.531,201.184c-1.791,0.098 -3.325,-1.276 -3.423,-3.067c-0.098,-1.791 1.276,-3.325 3.067,-3.424c49.391,-2.71 98.268,-10.942 147.293,-16.65c1.781,-0.207 3.396,1.071 3.604,2.852c0.207,1.782 -1.071,3.397 -2.853,3.604c-49.156,5.724 -98.165,13.967 -147.688,16.685Z" style="fill:#16a34a;"/><path d="M445.861,194.101c1.457,-1.047 3.489,-0.715 4.536,0.741c1.048,1.456 0.716,3.489 -0.741,4.536c-21.455,15.428 -40.281,33.956 -61.458,49.677c-30.069,22.321 -63.038,41.447 -95.06,60.841c-1.534,0.929 -3.534,0.438 -4.464,-1.096c-0.929,-1.534 -0.438,-3.534 1.097,-4.464c31.849,-19.289 64.646,-38.3 94.552,-60.5c21.203,-15.741 40.057,-34.288 61.538,-49.735Z" style="fill:#16a34a;"/><path d="M95.64,188.65c-1.677,-0.637 -2.522,-2.515 -1.885,-4.192c0.636,-1.677 2.515,-2.522 4.192,-1.885c22.162,8.412 48.581,7.661 71.876,9.005c26.165,1.51 52.253,3.862 78.438,5.253c1.791,0.095 3.168,1.627 3.073,3.418c-0.096,1.791 -1.627,3.168 -3.418,3.073c-26.194,-1.391 -52.293,-3.744 -78.467,-5.255c-23.928,-1.38 -51.044,-0.777 -73.809,-9.417Z" style="fill:#16a34a;"/><path d="M79.372,193.592c0.157,21.321 1.861,42.551 1.977,63.865c0.161,29.294 -1.102,58.407 0.47,87.674" style="fill:#16a34a;"/><path d="M76.122,193.616c-0.013,-1.794 1.433,-3.26 3.226,-3.274c1.794,-0.013 3.261,1.433 3.274,3.226c0.157,21.323 1.861,42.556 1.977,63.871c0.161,29.242 -1.104,58.303 0.466,87.517c0.096,1.791 -1.28,3.324 -3.071,3.42c-1.791,0.096 -3.324,-1.28 -3.42,-3.071c-1.575,-29.319 -0.314,-58.484 -0.475,-87.83c-0.116,-21.312 -1.82,-42.54 -1.977,-63.859Z" style="fill:#16a34a;"/><path d="M104.238,361.438c-1.399,1.122 -3.447,0.898 -4.569,-0.502c-1.122,-1.399 -0.898,-3.446 0.502,-4.568c11.35,-9.106 23.577,-17.435 34.444,-27.079c22.467,-19.937 42.553,-42.791 64.162,-63.673c18.528,-17.905 38.729,-34.15 58.526,-50.638c1.379,-1.148 3.43,-0.961 4.578,0.418c1.148,1.378 0.96,3.429 -0.418,4.577c-19.675,16.386 -39.756,32.524 -58.169,50.317c-21.675,20.945 -41.829,43.863 -64.364,63.861c-10.948,9.715 -23.258,18.115 -34.692,27.287Z" style="fill:#16a34a;"/><path d="M265.976,332.127c0.22,-1.78 1.843,-3.047 3.623,-2.828c1.781,0.22 3.048,1.844 2.828,3.624c-4.49,36.421 -1.826,74.64 -0.208,111.194c0.079,1.792 -1.312,3.311 -3.104,3.39c-1.791,0.08 -3.311,-1.311 -3.39,-3.103c-1.633,-36.91 -4.283,-75.501 0.251,-112.277Z" style="fill:#16a34a;"/><path d="M286.345,326.868c-1.696,-0.583 -2.6,-2.433 -2.017,-4.129c0.583,-1.697 2.434,-2.601 4.13,-2.018c10.484,3.604 21.292,5.442 31.925,8.468c13.519,3.848 26.57,9.117 40.161,12.831c26.261,7.176 53.209,12.853 79.052,21.449c1.702,0.566 2.624,2.407 2.058,4.109c-0.566,1.702 -2.407,2.624 -4.11,2.058c-25.731,-8.558 -52.566,-14.201 -78.713,-21.346c-13.614,-3.72 -26.686,-8.995 -40.227,-12.849c-10.746,-3.059 -21.664,-4.931 -32.259,-8.573Z" style="fill:#1d4ed8;"/><path d="M291.543,462.769c-1.574,0.861 -3.55,0.281 -4.411,-1.293c-0.86,-1.574 -0.28,-3.55 1.294,-4.41c49.369,-26.982 97.044,-57.693 149.21,-79.101c1.659,-0.681 3.559,0.114 4.24,1.773c0.681,1.66 -0.113,3.56 -1.773,4.241c-51.943,21.316 -99.401,51.924 -148.56,78.79Z" style="fill:#16a34a;"/><path d="M265.259,96.159c-0.094,-1.791 1.283,-3.323 3.074,-3.417c1.791,-0.095 3.323,1.282 3.417,3.073c1.443,27.272 -2.137,54.759 -1.356,82.126c0.051,1.793 -1.363,3.29 -3.156,3.341c-1.793,0.051 -3.29,-1.363 -3.342,-3.156c-0.779,-27.314 2.804,-54.748 1.363,-81.967Z" style="fill:#16a34a;"/><text id="v1" x="67.978px" y="180.828px" style="font-family:'ArialMT', 'Arial', sans-serif;font-size:24.415px;fill:#1d4ed8;">v1</text><g transform="matrix(24.4146,0,0,24.4146,283.592,83.7447)"></g><text x="257.806px" y="83.745px" style="font-family:'ArialMT', 'Arial', sans-serif;font-size:24.415px;fill:#1d4ed8;">v0</text><g transform="matrix(24.4146,0,0,24.4146,472.381,187.837)"></g><text x="446.595px" y="187.837px" style="font-family:'ArialMT', 'Arial', sans-serif;font-size:24.415px;fill:#1d4ed8;">v3</text><text x="256.674px" y="207.319px" style="font-family:'ArialMT', 'Arial', sans-serif;font-size:24.415px;fill:#1d4ed8;">v2</text><g transform="matrix(24.4146,0,0,24.4146,93.9959,375.381)"></g><text x="68.21px" y="375.381px" style="font-family:'ArialMT', 'Arial', sans-serif;font-size:24.415px;fill:#1d4ed8;">v4</text><g transform="matrix(24.4146,0,0,24.4146,283.17,320.551)"></g><text x="257.385px" y="320.551px" style="font-family:'ArialMT', 'Arial', sans-serif;font-size:24.415px;fill:#1d4ed8;">v5</text><g transform="matrix(24.4146,0,0,24.4146,282.3,473.56)"></g><text x="256.515px" y="473.56px" style="font-family:'ArialMT', 'Arial', sans-serif;font-size:24.415px;fill:#1d4ed8;">v7</text><g transform="matrix(24.4146,0,0,24.4146,471.728,382.017)"></g><text x="445.943px" y="382.017px" style="font-family:'ArialMT', 'Arial', sans-serif;font-size:24.415px;fill:#1d4ed8;">v6</text><circle cx="81.058" cy="173.335" r="19.789" style="fill:none;stroke:#1d4ed8;stroke-width:1px;"/><circle cx="270" cy="198.721" r="19.789" style="fill:none;stroke:#1d4ed8;stroke-width:1px;"/><circle cx="270" cy="312.895" r="19.789" style="fill:none;stroke:#1d4ed8;stroke-width:1px;"/><circle cx="81.058" cy="366.665" r="19.789" style="fill:none;stroke:#1d4ed8;stroke-width:1px;"/><circle cx="458.942" cy="372.814" r="19.789" style="fill:none;stroke:#1d4ed8;stroke-width:1px;"/><circle cx="270" cy="464.878" r="19.789" style="fill:none;stroke:#1d4ed8;stroke-width:1px;"/><circle cx="270" cy="75.122" r="19.789" style="fill:none;stroke:#1d4ed8;stroke-width:1px;"/><circle cx="458.942" cy="179.484" r="19.789" style="fill:none;stroke:#1d4ed8;stroke-width:1px;"/></svg>